HIERARCHY
ROOT Hips
{
	OFFSET 0.000000 0.000000 0.000000
	CHANNELS 6 Xposition Yposition Zposition Zrotation Yrotation Xrotation 
	JOINT LHipJoint
	{
		OFFSET 0.000000 0.000000 0.000000
		CHANNELS 3 Zrotation Yrotation Xrotation
		JOINT LeftUpLeg
		{
			OFFSET 1.363060 -1.794630 0.839290
			CHANNELS 3 Zrotation Yrotation Xrotation
			JOINT LeftLeg
			{
				OFFSET 2.448110 -6.726130 0.000000
				CHANNELS 3 Zrotation Yrotation Xrotation
				JOINT LeftFoot
				{
					OFFSET 2.562200 -7.039590 0.000000
					CHANNELS 3 Zrotation Yrotation Xrotation
					JOINT LeftToeBase
					{
						OFFSET 0.157640 -0.433110 2.322550
						CHANNELS 3 Zrotation Yrotation Xrotation
						End Site
						{
							OFFSET 0.000000 0.000000 0.000000
						}
					}
				}
			}
		}
	}
	JOINT RHipJoint
	{
		OFFSET 0.000000 0.000000 0.000000
		CHANNELS 3 Zrotation Yrotation Xrotation
		JOINT RightUpLeg
		{
			OFFSET -1.305520 -1.794630 0.839290
			CHANNELS 3 Zrotation Yrotation Xrotation
			JOINT RightLeg
			{
				OFFSET -2.542530 -6.985550 0.000000
				CHANNELS 3 Zrotation Yrotation Xrotation
				JOINT RightFoot
				{
					OFFSET -2.568260 -7.056230 0.000000
					CHANNELS 3 Zrotation Yrotation Xrotation
					JOINT RightToeBase
					{
						OFFSET -0.164730 -0.452590 2.363150
						CHANNELS 3 Zrotation Yrotation Xrotation
						End Site
						{
							OFFSET 0.000000 0.000000 0.000000
						}
					}
				}
			}
		}
	}
	JOINT LowerBack
	{
		OFFSET 0.000000 0.000000 0.000000
		CHANNELS 3 Zrotation Yrotation Xrotation
		JOINT Spine
		{
			OFFSET 0.028270 2.035590 -0.193380
			CHANNELS 3 Zrotation Yrotation Xrotation
			JOINT Spine1
			{
				OFFSET 0.056720 2.048850 -0.042750
				CHANNELS 3 Zrotation Yrotation Xrotation
				JOINT Neck
				{
					OFFSET 0.000000 0.000000 0.000000
					CHANNELS 3 Zrotation Yrotation Xrotation
					JOINT Neck1
					{
						OFFSET -0.054170 1.746240 0.172020
						CHANNELS 3 Zrotation Yrotation Xrotation
						JOINT Head
						{
							OFFSET 0.104070 1.761360 -0.123970
							CHANNELS 3 Zrotation Yrotation Xrotation
							End Site
							{
								OFFSET 0.000000 0.000000 0.000000
							}
						}
					}
				}
				JOINT LeftShoulder
				{
					OFFSET 0.000000 0.000000 0.000000
					CHANNELS 3 Zrotation Yrotation Xrotation
					JOINT LeftArm
					{
						OFFSET 3.362410 1.200890 -0.311210
						CHANNELS 3 Zrotation Yrotation Xrotation
						JOINT LeftForeArm
						{
							OFFSET 4.983000 -0.000000 -0.000000
							CHANNELS 3 Zrotation Yrotation Xrotation
							JOINT LeftHand
							{
								OFFSET 3.483560 -0.000000 -0.000000
								CHANNELS 3 Zrotation Yrotation Xrotation
								JOINT LeftFingerBase
								{
									OFFSET 0.000000 0.000000 0.000000
									CHANNELS 3 Zrotation Yrotation Xrotation
									JOINT LeftHandIndex1
									{
										OFFSET 0.715260 -0.000000 -0.000000
										CHANNELS 3 Zrotation Yrotation Xrotation
										End Site
										{
											OFFSET 0.000000 0.000000 0.000000
										}
									}
								}
								JOINT LThumb
								{
									OFFSET 0.000000 0.000000 0.000000
									CHANNELS 3 Zrotation Yrotation Xrotation
									End Site
									{
										OFFSET 0.000000 0.000000 0.000000
									}
								}
							}
						}
					}
				}
				JOINT RightShoulder
				{
					OFFSET 0.000000 0.000000 0.000000
					CHANNELS 3 Zrotation Yrotation Xrotation
					JOINT RightArm
					{
						OFFSET -3.136600 1.374050 -0.404650
						CHANNELS 3 Zrotation Yrotation Xrotation
						JOINT RightForeArm
						{
							OFFSET -5.241900 -0.000000 -0.000000
							CHANNELS 3 Zrotation Yrotation Xrotation
							JOINT RightHand
							{
								OFFSET -3.444170 -0.000000 -0.000000
								CHANNELS 3 Zrotation Yrotation Xrotation
								JOINT RightFingerBase
								{
									OFFSET 0.000000 0.000000 0.000000
									CHANNELS 3 Zrotation Yrotation Xrotation
									JOINT RightHandIndex1
									{
										OFFSET -0.622530 -0.000000 -0.000000
										CHANNELS 3 Zrotation Yrotation Xrotation
										End Site
										{
											OFFSET 0.000000 0.000000 0.000000
										}
									}
								}
								JOINT RThumb
								{
									OFFSET 0.000000 0.000000 0.000000
									CHANNELS 3 Zrotation Yrotation Xrotation
									End Site
									{
										OFFSET 0.000000 0.000000 0.000000
									}
								}
							}
						}
					}
				}
			}
		}
	}
}
MOTION
Frames: 5
Frame Time: 0.008333
2.186758 17.003101 -1.322302 178.964898 74.356819 -171.928950 -8.956455 2.306268 4.973553 -20.732820 -1.543784 -27.607973 -3.359341 -0.711706 12.029345 0.367128 1.228785 -4.220264 0.274900 0.000001 -3.833300 10.876770 -5.627645 -0.323145 2.567529 -19.517129 1.627887 0.737717 -2.362758 29.691914 0.108680 14.201120 25.008456 7.407800 0.000000 -82.948099 -4.940299 2.859240 -6.732799 -2.503890 3.004312 -4.279908 -8.053184 2.932580 0.956393 12.370430 -3.951927 -8.469415 -3.774005 -0.291593 -0.255087 0.000000 0.000000 0.000000 -0.740937 24.012376 1.316411 -49.851018 14.359474 0.355875 -4.060925 -28.545766 -0.001335 3.397433 2.870549 0.092809 -0.162787 -0.101414 -0.000000 0.000000 0.000000 0.000000 0.000000 0.000000 0.000000 19.539572 4.883867 -0.272316 69.454800 19.741700 17.888279 2.244086 43.193872 0.010154 0.546598 7.115294 0.034070 0.040376 -0.257287 -0.000000 0.000000 0.000000 0.000000 0.000000 0.000000 0.000000 
2.347087 17.014594 -1.373157 178.165694 73.990059 -172.854611 -8.919065 2.365020 4.949914 -20.980019 -1.575808 -26.660614 -3.378255 -0.710010 12.092304 0.360554 1.085715 -4.573442 0.237200 -0.000000 -2.910200 11.034697 -5.524584 -0.467990 1.929133 -20.152893 0.559818 0.536075 -2.465372 32.260565 -0.077014 13.948563 26.589934 7.691199 0.000000 -80.777900 -5.077280 2.776758 -6.565701 -2.518699 2.938932 -4.247824 -8.034908 2.867445 0.942101 12.319540 -3.944366 -8.499020 -3.780891 -0.291428 -0.265102 0.000000 0.000000 0.000000 -1.015751 23.959103 1.298410 -50.289671 13.712124 0.403314 -4.055960 -28.487078 -0.001467 3.372444 2.894001 0.092706 -0.160480 -0.099157 -0.000000 0.000000 0.000000 0.000000 0.000000 0.000000 0.000000 19.501749 4.837161 -0.283830 70.036012 18.983113 17.058330 2.283913 42.237824 0.010269 0.631882 7.001284 0.038834 0.040056 -0.250294 -0.000000 0.000000 0.000000 0.000000 0.000000 0.000000 0.000000 
2.503087 17.025713 -1.426251 177.538233 73.657525 -173.618632 -8.892883 2.411054 4.915524 -21.178123 -1.574552 -25.687624 -3.392187 -0.716182 12.098910 0.358639 0.965650 -4.950600 0.201199 -0.000000 -2.173400 11.167078 -5.404095 -0.619047 1.370404 -20.713333 -0.531237 0.350215 -2.563476 34.846969 -0.269117 13.154778 27.850390 7.593800 0.000000 -78.308000 -5.140881 2.696473 -6.381977 -2.515833 2.868707 -4.211369 -8.009877 2.797967 0.928517 12.236603 -3.923962 -8.532787 -3.788564 -0.291266 -0.275961 0.000000 0.000000 0.000000 -1.340042 23.912996 1.280090 -50.787439 13.041392 0.472761 -4.047992 -28.438080 -0.001553 3.346735 2.906623 0.092306 -0.157892 -0.096830 -0.000000 0.000000 0.000000 0.000000 0.000000 0.000000 0.000000 19.429772 4.801771 -0.290935 70.572753 18.235542 16.225254 2.322929 41.278982 0.010318 0.701819 6.877963 0.042497 0.039983 -0.243011 -0.000000 0.000000 0.000000 0.000000 0.000000 0.000000 0.000000 
2.655075 17.036585 -1.481202 177.038707 73.359103 -174.263634 -8.876225 2.446106 4.872767 -21.334655 -1.552273 -24.686521 -3.401000 -0.729710 12.036784 0.361549 0.880436 -5.321937 0.168800 0.000000 -1.635200 11.275622 -5.268057 -0.774341 0.883242 -21.186567 -1.635215 0.177435 -2.661095 37.424131 -0.466187 11.782492 28.722986 7.066600 -0.000000 -75.738600 -5.144219 2.616984 -6.184913 -2.498526 2.793518 -4.171447 -7.980043 2.723906 0.915733 12.130615 -3.895904 -8.568634 -3.797987 -0.291214 -0.287184 0.000000 0.000000 0.000000 -1.704369 23.866149 1.260915 -51.338834 12.355795 0.571243 -4.036255 -28.400613 -0.001573 3.325928 2.903980 0.091505 -0.155000 -0.094466 -0.000000 0.000000 0.000000 0.000000 0.000000 0.000000 0.000000 19.339394 4.771213 -0.292608 71.055543 17.502355 15.401805 2.361495 40.322521 0.010303 0.751778 6.755294 0.044760 0.040229 -0.235578 -0.000000 0.000000 0.000000 0.000000 0.000000 0.000000 0.000000 
2.803383 17.047451 -1.537968 176.668762 73.092330 -174.782669 -8.869289 2.471782 4.823643 -21.448451 -1.510870 -23.674124 -3.404314 -0.748973 11.912361 0.367788 0.826048 -5.669489 0.140300 0.000000 -1.291500 11.360659 -5.120377 -0.927465 0.479142 -21.552624 -2.750978 0.015171 -2.760859 39.962807 -0.668330 9.837037 29.150276 6.107499 0.000000 -73.208300 -5.088248 2.537509 -5.984116 -2.467588 2.712734 -4.129911 -7.947426 2.644532 0.904431 12.008896 -3.866230 -8.604463 -3.809671 -0.291360 -0.298141 0.000000 0.000000 0.000000 -2.103639 23.812071 1.239689 -51.936881 11.664011 0.708291 -4.019872 -28.376934 -0.001514 3.313643 2.884231 0.090405 -0.151784 -0.092107 -0.000000 0.000000 0.000000 0.000000 0.000000 0.000000 0.000000 19.241958 4.737644 -0.288728 71.477094 16.784981 14.601691 2.400215 39.371447 0.010235 0.778427 6.643787 0.045523 0.040863 -0.228084 -0.000000 0.000000 0.000000 0.000000 0.000000 0.000000 0.000000 
